<?xml version="1.0" encoding="utf-8"?>
<!-- Generator: Adobe Illustrator 16.0.4, SVG Export Plug-In . SVG Version: 6.00 Build 0)  -->
<!DOCTYPE svg PUBLIC "-//W3C//DTD SVG 1.1//EN" "http://www.w3.org/Graphics/SVG/1.1/DTD/svg11.dtd">
<svg version="1.1" id="Layer_1" xmlns="http://www.w3.org/2000/svg" xmlns:xlink="http://www.w3.org/1999/xlink" x="0px" y="0px"
	 width="140.969px" height="140.969px" viewBox="0 0 140.969 140.969" enable-background="new 0 0 140.969 140.969"
	 xml:space="preserve">
<g>
	<g>
		<polygon fill="#FFFFFF" points="21.146,35.24 14.093,35.24 14.093,119.826 21.146,126.869 		"/>
		<polygon fill="#FFFFFF" points="7.05,35.24 0,35.24 0,105.72 7.05,112.773 		"/>
		<rect x="42.292" y="105.72" fill="#FFFFFF" width="63.438" height="7.053"/>
		<rect x="42.292" y="119.826" fill="#FFFFFF" width="63.438" height="7.043"/>
		<polygon fill="#FFFFFF" points="35.242,133.917 35.242,35.24 28.193,35.24 28.193,133.917 35.242,140.969 105.729,140.969 
			105.729,133.917 		"/>
	</g>
	<g>
		<polygon fill="#FFFFFF" points="119.823,105.72 126.873,105.72 126.873,21.134 119.823,14.096 		"/>
		<polygon fill="#FFFFFF" points="133.922,105.72 140.969,105.72 140.969,35.24 133.922,28.193 		"/>
		<rect x="35.242" y="28.193" fill="#FFFFFF" width="63.438" height="7.047"/>
		<rect x="35.242" y="14.096" fill="#FFFFFF" width="63.438" height="7.038"/>
		<polygon fill="#FFFFFF" points="105.729,7.044 105.729,105.72 112.776,105.72 112.776,7.044 105.729,0 35.242,0 35.242,7.044 		
			"/>
	</g>
</g>
</svg>
